<svg width="1440" height="1654" viewBox="0 0 1440 1654" xmlns="http://www.w3.org/2000/svg"><style>
        text {
          font-family: system-ui, sans-serif;
          fill: #000;
        }
        .bg {
          fill: #fff;
        }
        .icon {
          fill: #000;
          opacity: 0.8;
        }

        /* header/sidebar styles */
        .header {
          fill: #f8f8f8;
        }
        .headerDate {
          font-size: 14px;
          font-weight: bold;
        }
        .logoIcon {
          fill: #4660F9;
        }
        .tick {
          fill: #666;
          font-weight: bold;
        }
        .tickLine {
          stroke: #666;
        }
        .sidebarDivider {
          stroke: #ddd;
        }

        /* track styles */
        .boxText {
          opacity: 0.7;
        }
        .date {
          fill: #999;
          font-size: 12px;
        }
        .progressOuter {
          fill: rgba(255,255,255,0.3);
        }
        .progressInner {
          fill: rgba(0,0,0,0.5);
        }
        .closedGroup &gt; text, .closedGroup &gt; use {
          fill: #999;
        }
        .subtext {
          opacity: 0.7;
        }

        /* nested track styles */
        .nestedBox {
          opacity: 0.6;
        }
        .nestedBg {
          fill: #f8f8f8;
        }
      </style><defs><filter id="shadow"><feDropShadow dx="0" dy="1" stdDeviation="1" flood-color="#ccc"></feDropShadow></filter><clipPath id="dont-overlap-sidebar"><rect x="350" y="0" width="1090" height="1654"></rect></clipPath><clipPath id="sidebar-contents"><rect x="0" y="0" width="350" height="1654"></rect></clipPath><linearGradient id="sidebarShadow" x1="0%" y1="0%" x2="100%" y2="0%"><stop offset="0%" style="stop-color: rgb(100, 100, 100); stop-opacity: 0.15;"></stop><stop offset="100%" style="stop-color: rgb(100, 100, 100); stop-opacity: 0;"></stop></linearGradient><path id="projectIcon" d="M4 4v2h8V4zm0-2h8a2 2 0 012 2v2a2 2 0 01-2 2H4a2 2 0 01-2-2V4a2 2 0 012-2zm4 9v2h12v-2zm0-2h12a2 2 0 012 2v2a2 2 0 01-2 2H8a2 2 0 01-2-2v-2a2 2 0 012-2zm-4 9v2h3v-2zm0-2h3a2 2 0 012 2v2a2 2 0 01-2 2H4a2 2 0 01-2-2v-2a2 2 0 012-2z" transform="scale(0.7)"></path><path id="epicIcon" d="M4.667 2A.667.667 0 004 2.667v11.231l3.12-2.738a1.333 1.333 0 011.76 0L12 13.898V2.667A.667.667 0 0011.333 2zM11.333.667a2 2 0 012 2v11.231a1.333 1.333 0 01-2.212 1.003L8 12.163 4.88 14.9a1.333 1.333 0 01-2.213-1.003V2.667a2 2 0 012-2zM9.667 3.333H6v6h4V8H7.333V7h2V5.667h-2v-1h2.334z"></path><path id="epicIconClosed" d="M12 8.04a.667.667 0 111.333 0v5.778a1.333 1.333 0 01-2.234.983L8 11.96 4.901 14.8a1.333 1.333 0 01-2.234-.982V2.667a2 2 0 012-2h3.349a.667.667 0 110 1.333h-3.35A.667.667 0 004 2.667v11.15l3.099-2.84a1.333 1.333 0 011.802 0L12 13.817zM9.805 3.529l.862.862 2.862-2.862a.667.667 0 11.942.942l-3.333 3.334a.667.667 0 01-.943 0L8.862 4.47a.667.667 0 11.943-.942z"></path><path id="zhLogo" d="M11.228 3.727V1.076H.327v2.651h7.229L.168 12.928v2.674h11.22v-2.674h-7.57zm5.644.702c-3.127 0-5.484 2.583-5.484 5.756 0 3.152 2.449 5.735 5.826 5.735 1.835 0 3.376-.748 4.192-1.7l-1.428-1.882a3.686 3.686 0 01-2.651 1.134c-1.678 0-2.833-1.088-3.106-2.607h8.046c.045-.18.068-.566.068-.906 0-3.127-2.358-5.53-5.463-5.53zm-2.605 4.69c.318-1.382 1.269-2.334 2.652-2.334 1.292 0 2.266.793 2.583 2.334h-5.235zm42.975 1.497c0 1.586-.929 2.651-2.312 2.651-1.383 0-2.312-1.065-2.312-2.651v-5.87h-2.766v6.074c0 3.037 2.017 5.055 5.077 5.055s5.078-2.017 5.078-5.055V4.746h-2.765v5.87zM67.894 4.43v-.002c-1.405 0-2.516.566-3.308 1.496V.008H61.82v15.594h2.765v-1.087c.77.884 1.88 1.405 3.308 1.405 3.015 0 5.213-2.47 5.213-5.757 0-3.377-2.334-5.734-5.213-5.734zm-.43 8.884c-1.654 0-2.878-1.383-2.878-3.128s1.224-3.15 2.878-3.15c1.677 0 2.878 1.405 2.878 3.15 0 1.746-1.2 3.128-2.878 3.128zm-38.749-8.9c-2.976 0-4.938 2.018-4.938 5.054v6.075h2.69v-5.87c0-1.587.904-2.652 2.248-2.652 1.344 0 2.247 1.065 2.247 2.651v5.871h2.69V9.468c0-3.037-1.962-5.054-4.937-5.054zm16.376 2.44H38.18v-5.78h-2.834v14.527h2.834V9.505h6.912V15.6h2.855V1.075h-2.855z"></path></defs><rect x="0" y="0" width="1440" height="1654" class="bg"></rect><g class="track"><title>[Feature] Roles and Permissions</title><g class="closedGroup" clip-path="url(#sidebar-contents)"><use href="#epicIconClosed" x="20" y="76" class="icon"></use><text x="40" y="88">[Feature] Roles and Permissions</text><text x="20" y="106" class="date">Sep 16 - Nov 18, 2020</text><line x1="0" x2="1440" y1="124" y2="124" stroke="#e7e7e7"></line></g><rect x="457.78270042194094" y="66" width="149.9240506329113" height="50" rx="2" clip-path="url(#dont-overlap-sidebar)" style="filter: url(&quot;#shadow&quot;); fill: rgb(233, 233, 233);"></rect><g class="closedGroup"><use href="#epicIconClosed" x="467.78270042194094" y="81" class="icon"></use><text x="487.78270042194094" y="94" class="boxText" clip-path="url(#dont-overlap-sidebar)">[Feature] Roles and Permissions<tspan class="subtext">– Closed</tspan></text></g><rect x="457.78270042194094" y="110" width="149.9240506329113" height="6" clip-path="url(#dont-overlap-sidebar)" class="progressOuter"></rect><rect x="457.78270042194094" y="110" width="149.9240506329113" height="6" clip-path="url(#dont-overlap-sidebar)" class="progressInner"></rect></g><g class="track"><title>[Feature] Single Sign-On</title><g class="closedGroup" clip-path="url(#sidebar-contents)"><use href="#epicIconClosed" x="20" y="142" class="icon"></use><text x="40" y="154">[Feature] Single Sign-On</text><text x="20" y="172" class="date">Sep 23 - Dec 9, 2020</text><line x1="0" x2="1440" y1="190" y2="190" stroke="#e7e7e7"></line></g><rect x="474.4409282700422" y="132" width="183.24050632911388" height="50" rx="2" clip-path="url(#dont-overlap-sidebar)" style="filter: url(&quot;#shadow&quot;); fill: rgb(233, 233, 233);"></rect><g class="closedGroup"><use href="#epicIconClosed" x="484.4409282700422" y="147" class="icon"></use><text x="504.4409282700422" y="160" class="boxText" clip-path="url(#dont-overlap-sidebar)">[Feature] Single Sign-On<tspan class="subtext">– Closed</tspan></text></g><rect x="474.4409282700422" y="176" width="183.24050632911388" height="6" clip-path="url(#dont-overlap-sidebar)" class="progressOuter"></rect><rect x="474.4409282700422" y="176" width="183.24050632911388" height="6" clip-path="url(#dont-overlap-sidebar)" class="progressInner"></rect></g><g class="track"><title>[Feature] Project Listing</title><g class="closedGroup" clip-path="url(#sidebar-contents)"><use href="#epicIconClosed" x="20" y="208" class="icon"></use><text x="40" y="220">[Feature] Project Listing</text><text x="20" y="238" class="date">Nov 25 - Dec 15, 2020</text><line x1="0" x2="1440" y1="256" y2="256" stroke="#e7e7e7"></line></g><rect x="624.3649789029536" y="198" width="47.5949367088607" height="50" rx="2" clip-path="url(#dont-overlap-sidebar)" style="filter: url(&quot;#shadow&quot;); fill: rgb(233, 233, 233);"></rect><g class="closedGroup"><use href="#epicIconClosed" x="634.3649789029536" y="213" class="icon"></use><text x="654.3649789029536" y="226" class="boxText" clip-path="url(#dont-overlap-sidebar)">[Feature] Project Listing<tspan class="subtext">– Closed</tspan></text></g><rect x="624.3649789029536" y="242" width="47.5949367088607" height="6" clip-path="url(#dont-overlap-sidebar)" class="progressOuter"></rect><rect x="624.3649789029536" y="242" width="47.5949367088607" height="6" clip-path="url(#dont-overlap-sidebar)" class="progressInner"></rect></g><g class="track"><title>[Feature] Project Summary</title><g class="closedGroup" clip-path="url(#sidebar-contents)"><use href="#epicIconClosed" x="20" y="274" class="icon"></use><text x="40" y="286">[Feature] Project Summary</text><text x="20" y="304" class="date">Nov 11 - Dec 16, 2020</text><line x1="0" x2="1440" y1="322" y2="322" stroke="#e7e7e7"></line></g><rect x="591.048523206751" y="264" width="83.29113924050625" height="50" rx="2" clip-path="url(#dont-overlap-sidebar)" style="filter: url(&quot;#shadow&quot;); fill: rgb(233, 233, 233);"></rect><g class="closedGroup"><use href="#epicIconClosed" x="601.048523206751" y="279" class="icon"></use><text x="621.048523206751" y="292" class="boxText" clip-path="url(#dont-overlap-sidebar)">[Feature] Project Summary<tspan class="subtext">– Closed</tspan></text></g><rect x="591.048523206751" y="308" width="83.29113924050625" height="6" clip-path="url(#dont-overlap-sidebar)" class="progressOuter"></rect><rect x="591.048523206751" y="308" width="83.29113924050625" height="6" clip-path="url(#dont-overlap-sidebar)" class="progressInner"></rect></g><g class="track"><title>[Feature] Project Definition </title><g class="closedGroup" clip-path="url(#sidebar-contents)"><use href="#epicIconClosed" x="20" y="340" class="icon"></use><text x="40" y="352">[Feature] Project Definition </text><text x="20" y="370" class="date">Oct 1 - Dec 16, 2020</text><line x1="0" x2="1440" y1="388" y2="388" stroke="#e7e7e7"></line></g><rect x="493.4789029535865" y="330" width="180.8607594936708" height="50" rx="2" clip-path="url(#dont-overlap-sidebar)" style="filter: url(&quot;#shadow&quot;); fill: rgb(233, 233, 233);"></rect><g class="closedGroup"><use href="#epicIconClosed" x="503.4789029535865" y="345" class="icon"></use><text x="523.4789029535865" y="358" class="boxText" clip-path="url(#dont-overlap-sidebar)">[Feature] Project Definition <tspan class="subtext">– Closed</tspan></text></g><rect x="493.4789029535865" y="374" width="180.8607594936708" height="6" clip-path="url(#dont-overlap-sidebar)" class="progressOuter"></rect><rect x="493.4789029535865" y="374" width="180.8607594936708" height="6" clip-path="url(#dont-overlap-sidebar)" class="progressInner"></rect></g><g class="track"><title>[Feature] Project Staffing</title><g class="closedGroup" clip-path="url(#sidebar-contents)"><use href="#epicIconClosed" x="20" y="406" class="icon"></use><text x="40" y="418">[Feature] Project Staffing</text><text x="20" y="436" class="date">Sep 23, 2020 - Jan 1, 2021</text><line x1="0" x2="1440" y1="454" y2="454" stroke="#e7e7e7"></line></g><rect x="474.4409282700422" y="396" width="237.9746835443038" height="50" rx="2" clip-path="url(#dont-overlap-sidebar)" style="filter: url(&quot;#shadow&quot;); fill: rgb(233, 233, 233);"></rect><g class="closedGroup"><use href="#epicIconClosed" x="484.4409282700422" y="411" class="icon"></use><text x="504.4409282700422" y="424" class="boxText" clip-path="url(#dont-overlap-sidebar)">[Feature] Project Staffing<tspan class="subtext">– Closed</tspan></text></g><rect x="474.4409282700422" y="440" width="237.9746835443038" height="6" clip-path="url(#dont-overlap-sidebar)" class="progressOuter"></rect><rect x="474.4409282700422" y="440" width="237.9746835443038" height="6" clip-path="url(#dont-overlap-sidebar)" class="progressInner"></rect></g><g class="track"><title>[Feature] Data Export</title><g class="closedGroup" clip-path="url(#sidebar-contents)"><use href="#epicIconClosed" x="20" y="472" class="icon"></use><text x="40" y="484">[Feature] Data Export</text><text x="20" y="502" class="date">Jan 11 - Jan 20</text><line x1="0" x2="1440" y1="520" y2="520" stroke="#e7e7e7"></line></g><rect x="736.2130801687764" y="462" width="21.417721518987378" height="50" rx="2" clip-path="url(#dont-overlap-sidebar)" style="filter: url(&quot;#shadow&quot;); fill: rgb(233, 233, 233);"></rect><g class="closedGroup"><use href="#epicIconClosed" x="746.2130801687764" y="477" class="icon"></use><text x="766.2130801687764" y="490" class="boxText" clip-path="url(#dont-overlap-sidebar)">[Feature] Data Export<tspan class="subtext">– Closed</tspan></text></g></g><g class="track"><title>[Feature] Moped Tables</title><g class="closedGroup" clip-path="url(#sidebar-contents)"><use href="#epicIconClosed" x="20" y="538" class="icon"></use><text x="40" y="550">[Feature] Moped Tables</text><text x="20" y="568" class="date">Dec 18, 2020 - Feb 2, 2021</text><line x1="0" x2="1440" y1="586" y2="586" stroke="#e7e7e7"></line></g><rect x="679.0991561181435" y="528" width="109.46835443037969" height="50" rx="2" clip-path="url(#dont-overlap-sidebar)" style="filter: url(&quot;#shadow&quot;); fill: rgb(233, 233, 233);"></rect><g class="closedGroup"><use href="#epicIconClosed" x="689.0991561181435" y="543" class="icon"></use><text x="709.0991561181435" y="556" class="boxText" clip-path="url(#dont-overlap-sidebar)">[Feature] Moped Tables<tspan class="subtext">– Closed</tspan></text></g><rect x="679.0991561181435" y="572" width="109.46835443037969" height="6" clip-path="url(#dont-overlap-sidebar)" class="progressOuter"></rect><rect x="679.0991561181435" y="572" width="109.46835443037969" height="6" clip-path="url(#dont-overlap-sidebar)" class="progressInner"></rect></g><g class="track"><title>[Feature] Project Extent</title><g class="closedGroup" clip-path="url(#sidebar-contents)"><use href="#epicIconClosed" x="20" y="604" class="icon"></use><text x="40" y="616">[Feature] Project Extent</text><text x="20" y="634" class="date">Aug 19, 2020 - Feb 15, 2021</text><line x1="0" x2="1440" y1="652" y2="652" stroke="#e7e7e7"></line></g><rect x="391.1497890295359" y="594" width="428.35443037974676" height="50" rx="2" clip-path="url(#dont-overlap-sidebar)" style="filter: url(&quot;#shadow&quot;); fill: rgb(233, 233, 233);"></rect><g class="closedGroup"><use href="#epicIconClosed" x="401.1497890295359" y="609" class="icon"></use><text x="421.1497890295359" y="622" class="boxText" clip-path="url(#dont-overlap-sidebar)">[Feature] Project Extent<tspan class="subtext">– Closed</tspan></text></g><rect x="391.1497890295359" y="638" width="428.35443037974676" height="6" clip-path="url(#dont-overlap-sidebar)" class="progressOuter"></rect><rect x="391.1497890295359" y="638" width="428.35443037974676" height="6" clip-path="url(#dont-overlap-sidebar)" class="progressInner"></rect></g><g class="track"><title>[Feature] eCapris Integration</title><g class="closedGroup" clip-path="url(#sidebar-contents)"><use href="#epicIconClosed" x="20" y="670" class="icon"></use><text x="40" y="682">[Feature] eCapris Integration</text><text x="20" y="700" class="date">Dec 27, 2020 - Feb 24, 2021</text><line x1="0" x2="1440" y1="718" y2="718" stroke="#e7e7e7"></line></g><rect x="700.5168776371308" y="660" width="140.4050632911392" height="50" rx="2" clip-path="url(#dont-overlap-sidebar)" style="filter: url(&quot;#shadow&quot;); fill: rgb(233, 233, 233);"></rect><g class="closedGroup"><use href="#epicIconClosed" x="710.5168776371308" y="675" class="icon"></use><text x="730.5168776371308" y="688" class="boxText" clip-path="url(#dont-overlap-sidebar)">[Feature] eCapris Integration<tspan class="subtext">– Closed</tspan></text></g><rect x="700.5168776371308" y="704" width="140.4050632911392" height="6" clip-path="url(#dont-overlap-sidebar)" class="progressOuter"></rect><rect x="700.5168776371308" y="704" width="140.4050632911392" height="6" clip-path="url(#dont-overlap-sidebar)" class="progressInner"></rect></g><g class="track"><title>[Feature] Edit Project</title><g class="closedGroup" clip-path="url(#sidebar-contents)"><use href="#epicIconClosed" x="20" y="736" class="icon"></use><text x="40" y="748">[Feature] Edit Project</text><text x="20" y="766" class="date">Jan 13 - Feb 27</text><line x1="0" x2="1440" y1="784" y2="784" stroke="#e7e7e7"></line></g><rect x="740.9725738396623" y="726" width="107.08860759493678" height="50" rx="2" clip-path="url(#dont-overlap-sidebar)" style="filter: url(&quot;#shadow&quot;); fill: rgb(233, 233, 233);"></rect><g class="closedGroup"><use href="#epicIconClosed" x="750.9725738396623" y="741" class="icon"></use><text x="770.9725738396623" y="754" class="boxText" clip-path="url(#dont-overlap-sidebar)">[Feature] Edit Project<tspan class="subtext">– Closed</tspan></text></g><rect x="740.9725738396623" y="770" width="107.08860759493678" height="6" clip-path="url(#dont-overlap-sidebar)" class="progressOuter"></rect><rect x="740.9725738396623" y="770" width="107.08860759493678" height="6" clip-path="url(#dont-overlap-sidebar)" class="progressInner"></rect></g><g class="track"><title>[Feature] User Management </title><g class="closedGroup" clip-path="url(#sidebar-contents)"><use href="#epicIconClosed" x="20" y="802" class="icon"></use><text x="40" y="814">[Feature] User Management </text><text x="20" y="832" class="date">Nov 1, 2020 - Mar 3, 2021</text><line x1="0" x2="1440" y1="850" y2="850" stroke="#e7e7e7"></line></g><rect x="567.2510548523206" y="792" width="290.3291139240507" height="50" rx="2" clip-path="url(#dont-overlap-sidebar)" style="filter: url(&quot;#shadow&quot;); fill: rgb(233, 233, 233);"></rect><g class="closedGroup"><use href="#epicIconClosed" x="577.2510548523206" y="807" class="icon"></use><text x="597.2510548523206" y="820" class="boxText" clip-path="url(#dont-overlap-sidebar)">[Feature] User Management <tspan class="subtext">– Closed</tspan></text></g><rect x="567.2510548523206" y="836" width="290.3291139240507" height="6" clip-path="url(#dont-overlap-sidebar)" class="progressOuter"></rect><rect x="567.2510548523206" y="836" width="290.3291139240507" height="6" clip-path="url(#dont-overlap-sidebar)" class="progressInner"></rect></g><g class="track"><title>[Feature] Phases</title><g class="closedGroup" clip-path="url(#sidebar-contents)"><use href="#epicIconClosed" x="20" y="868" class="icon"></use><text x="40" y="880">[Feature] Phases</text><text x="20" y="898" class="date">Nov 18, 2020 - Mar 8, 2021</text><line x1="0" x2="1440" y1="916" y2="916" stroke="#e7e7e7"></line></g><rect x="607.7067510548522" y="858" width="261.77215189873425" height="50" rx="2" clip-path="url(#dont-overlap-sidebar)" style="filter: url(&quot;#shadow&quot;); fill: rgb(233, 233, 233);"></rect><g class="closedGroup"><use href="#epicIconClosed" x="617.7067510548522" y="873" class="icon"></use><text x="637.7067510548522" y="886" class="boxText" clip-path="url(#dont-overlap-sidebar)">[Feature] Phases<tspan class="subtext">– Closed</tspan></text></g><rect x="607.7067510548522" y="902" width="261.77215189873425" height="6" clip-path="url(#dont-overlap-sidebar)" class="progressOuter"></rect><rect x="607.7067510548522" y="902" width="261.77215189873425" height="6" clip-path="url(#dont-overlap-sidebar)" class="progressInner"></rect></g><g class="track"><title>[Feature] Project Activity Feed</title><g class="closedGroup" clip-path="url(#sidebar-contents)"><use href="#epicIconClosed" x="20" y="934" class="icon"></use><text x="40" y="946">[Feature] Project Activity Feed</text><text x="20" y="964" class="date">Jan 6 - Mar 14</text><line x1="0" x2="1440" y1="982" y2="982" stroke="#e7e7e7"></line></g><rect x="724.3143459915611" y="924" width="159.44303797468353" height="50" rx="2" clip-path="url(#dont-overlap-sidebar)" style="filter: url(&quot;#shadow&quot;); fill: rgb(233, 233, 233);"></rect><g class="closedGroup"><use href="#epicIconClosed" x="734.3143459915611" y="939" class="icon"></use><text x="754.3143459915611" y="952" class="boxText" clip-path="url(#dont-overlap-sidebar)">[Feature] Project Activity Feed<tspan class="subtext">– Closed</tspan></text></g><rect x="724.3143459915611" y="968" width="159.44303797468353" height="6" clip-path="url(#dont-overlap-sidebar)" class="progressOuter"></rect><rect x="724.3143459915611" y="968" width="159.44303797468353" height="6" clip-path="url(#dont-overlap-sidebar)" class="progressInner"></rect></g><g class="track"><title>[Feature] Document Repository</title><g class="closedGroup" clip-path="url(#sidebar-contents)"><use href="#epicIconClosed" x="20" y="1000" class="icon"></use><text x="40" y="1012">[Feature] Document Repository</text><text x="20" y="1030" class="date">Feb 14 - Apr 9</text><line x1="0" x2="1440" y1="1048" y2="1048" stroke="#e7e7e7"></line></g><rect x="817.1244725738397" y="990" width="128.50632911392393" height="50" rx="2" clip-path="url(#dont-overlap-sidebar)" style="filter: url(&quot;#shadow&quot;); fill: rgb(233, 233, 233);"></rect><g class="closedGroup"><use href="#epicIconClosed" x="827.1244725738397" y="1005" class="icon"></use><text x="847.1244725738397" y="1018" class="boxText" clip-path="url(#dont-overlap-sidebar)">[Feature] Document Repository<tspan class="subtext">– Closed</tspan></text></g><rect x="817.1244725738397" y="1034" width="128.50632911392393" height="6" clip-path="url(#dont-overlap-sidebar)" class="progressOuter"></rect><rect x="817.1244725738397" y="1034" width="128.50632911392393" height="6" clip-path="url(#dont-overlap-sidebar)" class="progressInner"></rect></g><g class="track"><title>[Feature] End User Documentation</title><g class="closedGroup" clip-path="url(#sidebar-contents)"><use href="#epicIconClosed" x="20" y="1066" class="icon"></use><text x="40" y="1078">[Feature] End User Documentation</text><text x="20" y="1096" class="date">Apr 11 - Apr 26</text><line x1="0" x2="1440" y1="1114" y2="1114" stroke="#e7e7e7"></line></g><rect x="950.3902953586498" y="1056" width="35.696202531645554" height="50" rx="2" clip-path="url(#dont-overlap-sidebar)" style="filter: url(&quot;#shadow&quot;); fill: rgb(233, 233, 233);"></rect><g class="closedGroup"><use href="#epicIconClosed" x="960.3902953586498" y="1071" class="icon"></use><text x="980.3902953586498" y="1084" class="boxText" clip-path="url(#dont-overlap-sidebar)">[Feature] End User Documentation<tspan class="subtext">– Closed</tspan></text></g></g><g class="track"><title>[Feature] Milestones</title><g class="closedGroup" clip-path="url(#sidebar-contents)"><use href="#epicIconClosed" x="20" y="1132" class="icon"></use><text x="40" y="1144">[Feature] Milestones</text><text x="20" y="1162" class="date">Apr 29 - Jun 11</text><line x1="0" x2="1440" y1="1180" y2="1180" stroke="#e7e7e7"></line></g><rect x="993.2257383966245" y="1122" width="102.32911392405083" height="50" rx="2" clip-path="url(#dont-overlap-sidebar)" style="filter: url(&quot;#shadow&quot;); fill: rgb(233, 233, 233);"></rect><g class="closedGroup"><use href="#epicIconClosed" x="1003.2257383966245" y="1137" class="icon"></use><text x="1023.2257383966245" y="1150" class="boxText" clip-path="url(#dont-overlap-sidebar)">[Feature] Milestones<tspan class="subtext">– Closed</tspan></text></g><rect x="993.2257383966245" y="1166" width="102.32911392405083" height="6" clip-path="url(#dont-overlap-sidebar)" class="progressOuter"></rect><rect x="993.2257383966245" y="1166" width="73.09222423146488" height="6" clip-path="url(#dont-overlap-sidebar)" class="progressInner"></rect></g><g class="track"><title>[Feature] Project Comments</title><g class="" clip-path="url(#sidebar-contents)"><use href="#epicIcon" x="20" y="1198" class="icon"></use><text x="40" y="1210">[Feature] Project Comments</text><text x="20" y="1228" class="date">Dec 16, 2020 - Jun 23, 2021</text><line x1="0" x2="1440" y1="1246" y2="1246" stroke="#e7e7e7"></line></g><rect x="674.3396624472573" y="1188" width="449.77215189873436" height="50" rx="2" clip-path="url(#dont-overlap-sidebar)" style="filter: url(&quot;#shadow&quot;); fill: rgb(200, 205, 234);"></rect><g class=""><use href="#epicIcon" x="684.3396624472573" y="1203" class="icon"></use><text x="704.3396624472573" y="1216" class="boxText" clip-path="url(#dont-overlap-sidebar)">[Feature] Project Comments<tspan class="subtext"> (2/3)</tspan></text></g><rect x="674.3396624472573" y="1232" width="449.77215189873436" height="6" clip-path="url(#dont-overlap-sidebar)" class="progressOuter"></rect><rect x="674.3396624472573" y="1232" width="299.8481012658229" height="6" clip-path="url(#dont-overlap-sidebar)" class="progressInner"></rect></g><g class="track"><title>[Enhancements] Project Timeline</title><g class="" clip-path="url(#sidebar-contents)"><use href="#epicIcon" x="20" y="1264" class="icon"></use><text x="40" y="1276">[Enhancements] Project Timeline</text><text x="20" y="1294" class="date">Jun 3 - Jul 11</text><line x1="0" x2="1440" y1="1312" y2="1312" stroke="#e7e7e7"></line></g><rect x="1076.5168776371308" y="1254" width="90.43037974683534" height="50" rx="2" clip-path="url(#dont-overlap-sidebar)" style="filter: url(&quot;#shadow&quot;); fill: rgb(133, 213, 250);"></rect><g class=""><use href="#epicIcon" x="1086.5168776371308" y="1269" class="icon"></use><text x="1106.5168776371308" y="1282" class="boxText" clip-path="url(#dont-overlap-sidebar)">[Enhancements] Project Timeline<tspan class="subtext"> (1/4)</tspan></text></g><rect x="1076.5168776371308" y="1298" width="90.43037974683534" height="6" clip-path="url(#dont-overlap-sidebar)" class="progressOuter"></rect><rect x="1076.5168776371308" y="1298" width="22.607594936708836" height="6" clip-path="url(#dont-overlap-sidebar)" class="progressInner"></rect></g><g class="track"><title>[Feature] Project tags, categories, and labels</title><g class="" clip-path="url(#sidebar-contents)"><use href="#epicIcon" x="20" y="1330" class="icon"></use><text x="40" y="1342">[Feature] Project tags, categories, a…</text><text x="20" y="1360" class="date">Jun 6 - Jul 13</text><line x1="0" x2="1440" y1="1378" y2="1378" stroke="#e7e7e7"></line></g><rect x="1083.65611814346" y="1320" width="88.05063291139231" height="50" rx="2" clip-path="url(#dont-overlap-sidebar)" style="filter: url(&quot;#shadow&quot;); fill: rgb(145, 226, 237);"></rect><g class=""><use href="#epicIcon" x="1093.65611814346" y="1335" class="icon"></use><text x="1113.65611814346" y="1348" class="boxText" clip-path="url(#dont-overlap-sidebar)">[Feature] Project tags, categories, and labels<tspan class="subtext"> (2/5)</tspan></text></g><rect x="1083.65611814346" y="1364" width="88.05063291139231" height="6" clip-path="url(#dont-overlap-sidebar)" class="progressOuter"></rect><rect x="1083.65611814346" y="1364" width="35.22025316455693" height="6" clip-path="url(#dont-overlap-sidebar)" class="progressInner"></rect></g><g class="track"><title>[Feature] Project Components</title><g class="" clip-path="url(#sidebar-contents)"><use href="#epicIcon" x="20" y="1396" class="icon"></use><text x="40" y="1408">[Feature] Project Components</text><text x="20" y="1426" class="date">Feb 14 - Jul 17</text><line x1="0" x2="1440" y1="1444" y2="1444" stroke="#e7e7e7"></line></g><rect x="817.1244725738397" y="1386" width="364.1012658227846" height="50" rx="2" clip-path="url(#dont-overlap-sidebar)" style="filter: url(&quot;#shadow&quot;); fill: rgb(182, 162, 221);"></rect><g class=""><use href="#epicIcon" x="827.1244725738397" y="1401" class="icon"></use><text x="847.1244725738397" y="1414" class="boxText" clip-path="url(#dont-overlap-sidebar)">[Feature] Project Components<tspan class="subtext"> (19/25)</tspan></text></g><rect x="817.1244725738397" y="1430" width="364.1012658227846" height="6" clip-path="url(#dont-overlap-sidebar)" class="progressOuter"></rect><rect x="817.1244725738397" y="1430" width="276.7169620253163" height="6" clip-path="url(#dont-overlap-sidebar)" class="progressInner"></rect></g><g class="track"><title>[Feature] Financial Code Tracking</title><g class="" clip-path="url(#sidebar-contents)"><use href="#epicIcon" x="20" y="1462" class="icon"></use><text x="40" y="1474">[Feature] Financial Code Tracking</text><text x="20" y="1492" class="date">Jul 22 - Aug 8</text><line x1="0" x2="1440" y1="1510" y2="1510" stroke="#e7e7e7"></line></g><rect x="1193.1244725738397" y="1452" width="40.455696202531726" height="50" rx="2" clip-path="url(#dont-overlap-sidebar)" style="filter: url(&quot;#shadow&quot;); fill: rgb(200, 205, 234);"></rect><g class=""><use href="#epicIcon" x="1203.1244725738397" y="1467" class="icon"></use><text x="1223.1244725738397" y="1480" class="boxText" clip-path="url(#dont-overlap-sidebar)">[Feature] Financial Code Tracking<tspan class="subtext"></tspan></text></g></g><g class="track"><title>[Feature] ArcGIS Online (AGOL) Viewer</title><g class="" clip-path="url(#sidebar-contents)"><use href="#epicIcon" x="20" y="1528" class="icon"></use><text x="40" y="1540">[Feature] ArcGIS Online (AGOL) Viewer</text><text x="20" y="1558" class="date">Jul 16 - Aug 22</text><line x1="0" x2="1440" y1="1576" y2="1576" stroke="#e7e7e7"></line></g><rect x="1178.8459915611816" y="1518" width="88.05063291139231" height="50" rx="2" clip-path="url(#dont-overlap-sidebar)" style="filter: url(&quot;#shadow&quot;); fill: rgb(133, 213, 250);"></rect><g class=""><use href="#epicIcon" x="1188.8459915611816" y="1533" class="icon"></use><text x="1208.8459915611816" y="1546" class="boxText" clip-path="url(#dont-overlap-sidebar)">[Feature] ArcGIS Online (AGOL) Viewer<tspan class="subtext"> (0/1)</tspan></text></g><rect x="1178.8459915611816" y="1562" width="88.05063291139231" height="6" clip-path="url(#dont-overlap-sidebar)" class="progressOuter"></rect></g><g class="track"><title>[Data Migration] | Migrate IMPD Access Data to Moped</title><g class="" clip-path="url(#sidebar-contents)"><use href="#epicIcon" x="20" y="1594" class="icon"></use><text x="40" y="1606">[Data Migration] | Migrate IMPD Acces…</text><text x="20" y="1624" class="date">Mar 5 - Aug 23</text><line x1="0" x2="1440" y1="1642" y2="1642" stroke="#e7e7e7"></line></g><rect x="862.3396624472574" y="1584" width="406.9367088607595" height="50" rx="2" clip-path="url(#dont-overlap-sidebar)" style="filter: url(&quot;#shadow&quot;); fill: rgb(145, 226, 237);"></rect><g class=""><use href="#epicIcon" x="872.3396624472574" y="1599" class="icon"></use><text x="892.3396624472574" y="1612" class="boxText" clip-path="url(#dont-overlap-sidebar)">[Data Migration] | Migrate IMPD Access Data to Moped<tspan class="subtext"> (7/8)</tspan></text></g><rect x="862.3396624472574" y="1628" width="406.9367088607595" height="6" clip-path="url(#dont-overlap-sidebar)" class="progressOuter"></rect><rect x="862.3396624472574" y="1628" width="356.06962025316454" height="6" clip-path="url(#dont-overlap-sidebar)" class="progressInner"></rect></g><g><rect x="0" y="0" width="1440" height="62" class="header" style="filter: url(&quot;#shadow&quot;);"></rect><a href="https://www.zenhub.com"><use href="#zhLogo" x="20" y="12" class="logoIcon"></use></a><text x="20" y="45" class="headerDate">June 21, 2021</text></g><g clip-path="url(#dont-overlap-sidebar)"><text x="350" y="30" class="tick">Aug</text><text x="423.7721518987342" y="30" class="tick">Sep</text><text x="495.1645569620253" y="30" class="tick">Oct</text><text x="569.035864978903" y="30" class="tick">Nov</text><text x="640.4282700421941" y="30" class="tick">Dec</text><text x="714.2004219409282" y="30" class="tick">2021</text><text x="787.9725738396625" y="30" class="tick">Feb</text><text x="854.6054852320675" y="30" class="tick">Mar</text><text x="928.2784810126582" y="30" class="tick">Apr</text><text x="999.6708860759494" y="30" class="tick">May</text><text x="1073.4430379746836" y="30" class="tick">Jun</text><text x="1144.8354430379745" y="30" class="tick">Jul</text><text x="1218.607594936709" y="30" class="tick">Aug</text><text x="1292.379746835443" y="30" class="tick">Sep</text>;</g><rect x="350" y="0" width="20" height="1654" fill="url(#sidebarShadow)"></rect><line x1="350" x2="350" y1="50" y2="1654" class="sidebarDivider"></line></svg>