<svg version="1.1" id="Layer_1" xmlns="http://www.w3.org/2000/svg" xmlns:xlink="http://www.w3.org/1999/xlink" x="0px" y="0px"
	 viewBox="0 0 100 100" style="enable-background:new 0 0 100 100;" xml:space="preserve">
<g id="Layer_2_00000059269242791515018920000015827968486804961214_">
</g>
	<g id="Layer_1_00000032614635647443411300000005635075380271542165_">
	<g>
		<g>
			<g>
				<g>
					<path d="M39.8,91.6c-1.6,0-3.1-0.8-3.7-2.2c-0.1-0.3-0.2-0.6-0.2-0.9c0-7.6-3.7-12.7-9.5-17.4c-5.4-4.2-10.1-9.2-15.1-13.9
						c-4-3.7-4.5-8.1-1.5-11.8c2.9-3.7,7.4-4,11.9-0.8c2.9,2,5.9,4,9.5,6.4c-0.8-2.5-1.4-4.3-2.1-6.1c-2.2-5.2-4.5-10.3-6.7-15.5
						c-1.9-4.4,0-9.1,4.2-10.9c4.1-1.8,8.6-0.1,10.6,4.2c1.5,3.1,2.8,6.2,4.8,9.2c0-4.4-0.1-8.8,0-13.2c0-1.7,0.1-3.4,0.6-4.9
						c1.2-3.5,5.1-5.7,8.4-5.2c4,0.6,6.8,3.6,7.2,7.6c0.1,1.8,0.3,14.2,0.4,15.2c-0.1-2.9-0.3-14.2,6.3-15.6
						c5.9-1.3,10.8,2.7,10.4,8.9c-0.3,3.9-0.7,7.9-0.8,12.1c2.4-3.1,4.5-6.6,8.9-6.7c2.6-0.1,4.5,0.8,6,2.3c2.5,2.5,3.2,6.5,1.7,9.9
						c-4.5,10.2-8.9,20.4-13.7,30.5c-2.1,4.6-3.6,9.3-3.4,14.4c0,0.3,0,0.6-0.1,0.9c-0.5,2.1-2.4,3.5-4.6,3.5
						C69.3,91.6,39.8,91.6,39.8,91.6z M54.7,86.9c4,0,7.9-0.2,11.9,0.1c2.6,0.1,3.9-0.6,3.6-3.4c-0.3-3.7,0.8-6.9,2.3-10.2
						c4.9-10.8,9.7-21.9,14.4-32.8c0.9-2.2,1.2-4.2-1.2-5.8c-1.9-1.3-4-0.5-5.7,1.9c-2.2,3.1-4.3,6.2-6.6,9.1
						c-0.5,0.6-2,1.3-2.6,1.1s-1.3-1.7-1.3-2.5c0-2.3,0.3-4.5,0.4-6.8c0.3-4.5,0.7-9.1,1.1-13.6c0.1-2.3-0.8-3.9-3.2-4.3
						c-2.4-0.3-3.9,0.9-4.4,3.4c-0.1,0.7-0.3,1.6-0.4,2.3C62.1,31.3,60.4,37,60.1,43c-0.1,3.5-4.4,3.2-4.2-0.3
						c0.4-8.1-1.2-16.2-1.7-24.3C54,14.7,52.8,13,50.1,13c-2.6,0-3.8,1.7-3.8,5.6c0,7.5,0,14.8,0,22.3c0,1.8,0.8,4.2-1.7,4.8
						c-2.6,0.6-2.8-2-3.5-3.6c-2.6-5.8-5.2-11.6-7.8-17.3c-0.9-2.1-2.6-3.3-5.1-2.3c-2.2,0.8-2.9,2.9-2.1,5.4
						c0.2,0.6,0.6,1.3,0.8,1.9c3.2,8.1,6,16.3,9.3,24.3c2,4.8-1.9,4.3-3.9,3.1c-4.4-2.7-8.7-5.9-13.1-8.8c-2.7-1.8-4.9-1.9-6.3-0.1
						c-1.5,1.9-1.1,4,1.4,6.2c5.5,5.1,10.7,10.3,16.3,15.2c4.8,4.2,9.3,8.3,8.7,15.5c-0.1,1.5,0.8,2.2,2.4,2.1
						C46.2,86.8,50.5,86.9,54.7,86.9z"/>
					<path d="M69.3,92.1H39.8c-1.9,0-3.5-1-4.2-2.5c-0.1-0.4-0.2-0.7-0.2-1.1c0-6.6-2.8-11.7-9.3-17c-3.9-3-7.4-6.5-10.9-9.9
						c-1.4-1.4-2.8-2.7-4.2-4.1C6.8,53.7,6.2,49,9.4,45.1c3.1-3.9,7.9-4.2,12.6-0.9c2.6,1.8,5.3,3.6,8.3,5.6
						c-0.6-1.8-1.1-3.3-1.6-4.7c-1.1-2.6-2.2-5.2-3.3-7.7c-1.1-2.6-2.3-5.2-3.4-7.8c-1-2.3-1-4.7-0.2-6.9c0.8-2.1,2.5-3.8,4.6-4.7
						c4.4-1.9,9.1-0.1,11.3,4.4c0.3,0.7,0.6,1.3,0.9,2c0.9,1.9,1.8,3.8,2.9,5.7c0-0.9,0-1.8,0-2.7c0-2.9,0-5.9,0-8.8
						c0-1.6,0.1-3.4,0.6-5c1.2-3.6,5.3-6.1,8.9-5.5c4.2,0.6,7.2,3.8,7.6,8c0,0.8,0.1,3.4,0.2,6.3c0.9-3.4,2.6-6.4,5.9-7.1
						c3-0.7,5.9,0,8,1.8c2.1,1.8,3.2,4.5,3,7.6c-0.1,0.9-0.1,1.8-0.2,2.7c-0.2,2.5-0.4,5.2-0.5,7.9c2.1-2.8,4.3-5.6,8.3-5.6
						c2.5-0.1,4.6,0.7,6.4,2.4c2.7,2.7,3.4,6.9,1.8,10.5l-2.5,5.6c-3.6,8.2-7.3,16.6-11.2,24.9c-2.5,5.4-3.5,9.8-3.4,14.2
						c0,0.3,0,0.7-0.1,1.1C73.8,90.5,71.8,92.1,69.3,92.1z M15.6,42.9c-2.1,0-4,0.9-5.5,2.8c-2.9,3.6-2.4,7.6,1.4,11.1
						c1.4,1.3,2.8,2.7,4.2,4.1c3.4,3.3,7,6.8,10.8,9.8c6.8,5.5,9.7,10.8,9.7,17.8c0,0.2,0.1,0.5,0.2,0.7c0.5,1.1,1.8,1.9,3.2,1.9
						h29.5c2,0,3.7-1.3,4.1-3.1c0.1-0.3,0.1-0.5,0.1-0.8c-0.2-4.5,0.9-9,3.4-14.6c3.9-8.2,7.6-16.7,11.2-24.8l2.5-5.6
						c1.4-3.2,0.8-7-1.6-9.3c-1.5-1.5-3.4-2.2-5.6-2.2c-3.7,0.1-5.6,2.7-7.7,5.5c-0.3,0.3-0.5,0.7-0.8,1L74,38.3l0-1.5
						c0.1-3.3,0.3-6.4,0.6-9.5c0.1-0.9,0.1-1.8,0.2-2.7c0.2-2.8-0.7-5.2-2.6-6.8c-1.9-1.6-4.5-2.2-7.2-1.6c-5.8,1.2-6.1,11-5.9,15.1
						l-1,0.1c-0.1-0.6-0.1-4.2-0.2-8c-0.1-3.1-0.1-6.4-0.2-7.2c-0.4-3.8-3-6.6-6.8-7.1c-3.2-0.5-6.8,1.7-7.9,4.9
						c-0.5,1.5-0.6,3.2-0.6,4.7c-0.1,2.9,0,5.9,0,8.8c0,1.5,0,2.9,0,4.4v1.7l-0.9-1.4c-1.6-2.4-2.8-4.9-3.9-7.3
						c-0.3-0.7-0.6-1.3-0.9-2c-1.9-4-6-5.7-9.9-4c-1.9,0.8-3.4,2.3-4.1,4.2c-0.8,1.9-0.7,4.1,0.2,6.1c1.1,2.6,2.2,5.2,3.4,7.8
						c1.1,2.6,2.2,5.1,3.3,7.7c0.7,1.8,1.3,3.6,2.1,6.1l0.4,1.4l-1.2-0.8c-3.5-2.4-6.6-4.4-9.5-6.4C19.4,43.6,17.5,42.9,15.6,42.9z
						 M41.4,87.8c-0.9,0-1.5-0.2-2-0.7c-0.5-0.5-0.7-1.1-0.6-2c0.6-7.1-4-11.2-8.5-15.1c-3.6-3.1-7.1-6.4-10.4-9.7
						c-1.9-1.9-3.9-3.7-5.9-5.6c-3.4-3-2.6-5.4-1.5-6.9c0.9-1.1,3-2.7,7,0c1.7,1.1,3.5,2.4,5.2,3.5c2.6,1.8,5.3,3.6,7.9,5.3
						c1.1,0.7,2.7,1,3.4,0.5c0.5-0.4,0.4-1.5-0.2-2.9c-1.9-4.6-3.6-9.2-5.3-13.8c-1.3-3.5-2.6-7-4-10.5c-0.1-0.3-0.2-0.6-0.4-0.9
						c-0.2-0.3-0.3-0.7-0.4-1c-0.9-2.8,0-5.2,2.4-6c2.5-1,4.6-0.1,5.7,2.6c2.6,5.7,5.2,11.5,7.8,17.3c0.1,0.3,0.3,0.7,0.4,1.1
						c0.5,1.6,1,2.6,2.5,2.3c1.5-0.4,1.5-1.4,1.4-3.2c0-0.4-0.1-0.8-0.1-1.1V18.6c0-2.6,0.4-6.1,4.3-6.1c3.8,0,4.5,3.4,4.6,5.9
						c0.2,2.9,0.5,5.8,0.8,8.6c0.6,5.2,1.2,10.5,0.9,15.8c-0.1,0.9,0.2,1.6,0.8,2c0.4,0.3,1,0.3,1.5,0.1c0.6-0.3,0.9-1,0.9-1.8
						c0.2-3.9,1-7.6,1.7-11.3c0.4-2.1,0.9-4.2,1.2-6.4c0-0.4,0.1-0.8,0.2-1.2c0.1-0.4,0.1-0.8,0.2-1.1c0.6-2.8,2.3-4.2,5-3.8
						c2.5,0.4,3.8,2.1,3.6,4.8c-0.4,4.4-0.8,9.1-1.1,13.6c0,0.9-0.1,1.8-0.2,2.7c-0.1,1.3-0.2,2.7-0.2,4c0,0.7,0.7,1.9,1,2
						c0.3,0.1,1.6-0.4,2.1-0.9c1.8-2.2,3.4-4.5,5.1-6.9c0.5-0.7,1-1.4,1.5-2.1c1.9-2.7,4.3-3.5,6.4-2c2.8,1.8,2.3,4.3,1.4,6.4
						C82.3,52.5,77.7,63.1,73,73.6c-1.4,3-2.6,6.2-2.3,10c0.1,1.4-0.1,2.4-0.7,3c-0.7,0.7-1.7,1-3.4,0.9c-2.8-0.2-5.7-0.2-8.5-0.1
						c-1.1,0-2.3,0-3.4,0l-1.8,0c-3.6,0-7.3,0-11.1,0.4C41.6,87.8,41.5,87.8,41.4,87.8z M15.5,47.5c-0.9,0-1.6,0.4-2.2,1.1
						c-1.4,1.7-0.9,3.5,1.3,5.5c2,1.9,4,3.7,5.9,5.6c3.4,3.2,6.8,6.5,10.4,9.6c4.7,4.1,9.5,8.3,8.9,15.9c0,0.5,0.1,0.9,0.3,1.2
						c0.4,0.4,1,0.4,1.5,0.4c3.9-0.4,7.6-0.4,11.2-0.4l1.8,0c1.1,0,2.3,0,3.4,0c2.8,0,5.6-0.1,8.5,0.1c1.4,0.1,2.2-0.1,2.6-0.6
						c0.4-0.4,0.5-1.2,0.4-2.2c-0.3-4,0.9-7.4,2.3-10.5c4.8-10.5,9.3-21.1,14.4-32.8c0.9-2.2,1-3.8-1-5.2c-2.3-1.6-4.3,0.7-5,1.8
						c-0.5,0.7-1,1.4-1.5,2.1c-1.6,2.3-3.3,4.8-5.1,7c-0.6,0.7-2.3,1.6-3.2,1.3c-0.9-0.3-1.6-2.1-1.6-3c0-1.4,0.1-2.8,0.2-4.1
						c0.1-0.9,0.1-1.8,0.2-2.7c0.3-4.6,0.7-9.2,1.1-13.6c0.1-2.2-0.8-3.4-2.8-3.8c-2.1-0.3-3.4,0.8-3.8,3c0,0.3-0.1,0.7-0.2,1.1
						c-0.1,0.4-0.1,0.8-0.2,1.1c-0.3,2.2-0.8,4.3-1.2,6.4c-0.7,3.6-1.5,7.3-1.7,11.1c0,1.2-0.6,2.2-1.5,2.7
						c-0.8,0.4-1.7,0.4-2.5-0.1c-0.9-0.6-1.4-1.6-1.3-2.9c0.3-5.2-0.3-10.5-0.9-15.6c-0.3-2.8-0.6-5.8-0.8-8.6
						c-0.2-3.5-1.2-4.9-3.6-4.9c-1.6,0-3.3,0.6-3.3,5.1v22.3c0,0.3,0,0.7,0.1,1c0.1,1.5,0.3,3.7-2.1,4.2c-2.5,0.6-3.2-1.4-3.7-2.9
						c-0.1-0.3-0.2-0.7-0.4-1C38,36.5,35.4,30.7,32.8,25c-0.6-1.5-1.9-3.1-4.5-2c-1.9,0.7-2.6,2.5-1.8,4.8c0.1,0.3,0.2,0.6,0.4,0.9
						c0.2,0.3,0.3,0.7,0.4,1c1.4,3.5,2.7,7.1,4,10.5c1.7,4.5,3.4,9.2,5.3,13.8c0.8,2,0.8,3.3-0.1,4.1c-1.2,1-3.4,0.3-4.5-0.4
						c-2.7-1.6-5.4-3.5-8-5.3c-1.7-1.2-3.4-2.4-5.2-3.5C17.6,47.9,16.5,47.5,15.5,47.5z"/>
				</g>
			</g>
		</g>
	</g>
</g>
</svg>
