<svg height='300px' width='300px'  fill="#000000" xmlns="http://www.w3.org/2000/svg" xmlns:xlink="http://www.w3.org/1999/xlink" version="1.1" x="0px" y="0px" viewBox="0 0 100 100" enable-background="new 0 0 100 100" xml:space="preserve"><path d="M93.871,78.216l-11.75-20.384c-1.063-1.85-2.791-3.188-4.781-3.809V23.423c0-0.923-0.509-1.771-1.322-2.206l-22.5-12  c-0.08-0.042-0.168-0.061-0.25-0.094c-0.1-0.04-0.194-0.085-0.299-0.112c-0.102-0.026-0.203-0.033-0.307-0.047  c-0.107-0.014-0.215-0.033-0.324-0.033c-0.104,0-0.205,0.019-0.309,0.031c-0.107,0.014-0.215,0.021-0.319,0.05  c-0.103,0.026-0.196,0.071-0.296,0.111c-0.084,0.033-0.171,0.051-0.251,0.094L29.84,20.59L8.517,9.218  c-0.773-0.411-1.71-0.39-2.463,0.063c-0.753,0.45-1.214,1.265-1.214,2.143v53.75c0,0.924,0.509,1.771,1.323,2.206l22.5,12  c0.112,0.062,0.233,0.095,0.353,0.136c0.064,0.022,0.125,0.058,0.191,0.073c0.207,0.054,0.42,0.085,0.633,0.085  c0.213,0,0.426-0.031,0.633-0.085c0.066-0.019,0.127-0.051,0.191-0.073c0.119-0.041,0.24-0.074,0.353-0.136L52.34,68.008l2.249,1.2  c0.375,0.199,0.777,0.295,1.175,0.295c0.896,0,1.758-0.479,2.209-1.323c0.648-1.219,0.188-2.731-1.029-3.384l-2.104-1.122V15.591  l17.5,9.333V54.03c-1.97,0.624-3.688,1.95-4.752,3.786L55.645,78.47c-1.494,2.587-1.496,5.8-0.006,8.388  c1.492,2.591,4.275,4.199,7.264,4.201l23.912,0.02h0.021c4.589-0.033,8.324-3.794,8.327-8.387  C95.16,81.1,94.715,79.553,93.871,78.216z M27.34,73.007l-17.5-9.333V15.591l17.5,9.333V73.007z M49.84,63.674l-17.5,9.333V24.924  l17.5-9.333V63.674z M86.796,86.076l-23.889-0.018c-1.208-0.002-2.333-0.651-2.937-1.697c-0.604-1.047-0.603-2.346,0.002-3.389  l11.94-20.649c0.606-1.048,1.731-1.696,2.938-1.696c1.207,0.001,2.33,0.65,2.935,1.7l11.778,20.434  c0.021,0.034,0.041,0.068,0.063,0.104c0.349,0.542,0.531,1.174,0.531,1.825C90.159,84.544,88.65,86.063,86.796,86.076z   M74.855,61.654c-0.002,0-0.002,0-0.002,0c-1.381,0-2.5,1.117-2.5,2.498L72.346,74.76c-0.003,1.383,1.115,2.501,2.496,2.504  c0.001,0,0.001,0,0.004,0c1.379,0,2.497-1.119,2.5-2.498l0.008-10.609C77.354,62.775,76.236,61.655,74.855,61.654z M74.84,78.646  c-1.381,0-2.5,1.119-2.5,2.5v0.461c0,1.381,1.119,2.5,2.5,2.5s2.5-1.119,2.5-2.5v-0.461C77.34,79.766,76.221,78.646,74.84,78.646z"></path></svg>