<svg xmlns="http://www.w3.org/2000/svg" viewBox="0 0 62.36 49.91" height="43" width="42"><path d="M49.29 10.19V.67c1.65.04 2.35 2.16 2.35 4.74s-.7 4.73-2.35 4.78z" fill="#f1c40f"/><path d="M50.32 14.94l5.32 16.58c-1.11.57-3.69.41-5.09.52a11.78 11.78 0 00-1.81.25l-4.87-15.25 1.5-.49-2.22-6.87a3 3 0 01-1.84-1.18l-5.09 1.64c-.49.16-1.09-.32-1.34-1.08l-.08-.25c-.24-.75 0-1.5.46-1.66l5.08-1.64a3.07 3.07 0 012.12-2.88h.13a2.64 2.64 0 011.57 0A5.53 5.53 0 0148.47.11v10.76a4.15 4.15 0 01-1.91-.46l1.73 5.18zM10.64 23.97a2.94 2.94 0 010-.72v-.49a2.16 2.16 0 012.45-2.14h19.9a2 2 0 012.3 2.14v.49a2.16 2.16 0 01-2.3 2.3h-2.3a7.74 7.74 0 00-1.95 4.8 6.25 6.25 0 003.68 5.88h12.22a19.13 19.13 0 00-1 4.11H0v-4.25c0-4.68 5.82-11.14 10.64-12.12z" fill="#ff6549"/><path d="M52.77 30.72a9.59 9.59 0 11-9.59 9.59 9.6 9.6 0 019.59-9.59z" fill="#475059"/><path d="M52.77 30.72V49.9a9.59 9.59 0 110-19.18z" fill="#353d44"/><path d="M52.77 35.55A4.77 4.77 0 1148 40.31a4.77 4.77 0 014.77-4.76z" fill="#bfc2c4"/><path d="M52.77 35.55v9.53a4.77 4.77 0 110-9.53z" fill="#acb3b7"/><path d="M17.48 30.72a9.59 9.59 0 11-9.59 9.59 9.61 9.61 0 019.59-9.59z" fill="#475059"/><path d="M17.48 30.72V49.9a9.59 9.59 0 010-19.18z" fill="#353d44"/><path d="M17.48 35.55a4.77 4.77 0 11-4.77 4.76 4.77 4.77 0 014.77-4.76z" fill="#bfc2c4"/><path d="M17.48 35.55v9.53a4.77 4.77 0 110-9.53z" fill="#acb3b7"/><path fill="#bfc2c4" d="M48.47 0h.83v10.86h-.83z"/><rect rx="1.71" height="5.12" width="25.12" y="20.52" x="10.31" fill="#475059"/><path d="M12.01 20.52h10.85v5.12H12.01a1.71 1.71 0 01-1.71-1.7v-1.71a1.72 1.72 0 011.71-1.71z" fill="#353d44"/></svg>