<?xml version="1.0" encoding="UTF-8" standalone="no"?>
<svg
   xmlns:dc="http://purl.org/dc/elements/1.1/"
   xmlns:cc="http://creativecommons.org/ns#"
   xmlns:rdf="http://www.w3.org/1999/02/22-rdf-syntax-ns#"
   xmlns:svg="http://www.w3.org/2000/svg"
   xmlns="http://www.w3.org/2000/svg"
   xmlns:sodipodi="http://sodipodi.sourceforge.net/DTD/sodipodi-0.dtd"
   xmlns:inkscape="http://www.inkscape.org/namespaces/inkscape"
   inkscape:version="1.0 (4035a4f, 2020-05-01)"
   sodipodi:docname="moped.svg"
   id="svg77"
   version="1.1"
   viewBox="0 0 62.36 49.91"
   height="43px"
   width="42px">
  <metadata
     id="metadata83">
    <rdf:RDF>
      <cc:Work
         rdf:about="">
        <dc:format>image/svg+xml</dc:format>
        <dc:type
           rdf:resource="http://purl.org/dc/dcmitype/StillImage" />
      </cc:Work>
    </rdf:RDF>
  </metadata>
  <defs
     id="defs81" />
  <sodipodi:namedview
     inkscape:current-layer="svg77"
     inkscape:window-maximized="0"
     inkscape:window-y="25"
     inkscape:window-x="86"
     inkscape:cy="21.5"
     inkscape:cx="17.519048"
     inkscape:zoom="17.093023"
     showgrid="false"
     id="namedview79"
     inkscape:window-height="998"
     inkscape:window-width="1566"
     inkscape:pageshadow="2"
     inkscape:pageopacity="0"
     guidetolerance="10"
     gridtolerance="10"
     objecttolerance="10"
     borderopacity="1"
     bordercolor="#666666"
     pagecolor="#ffffff" />
  <path
     id="path49"
     style="fill:#f1c40f"
     transform="translate(-0.36 -6.59)"
     d="M49.65,16.78V7.26C51.3,7.3,52,9.42,52,12S51.3,16.73,49.65,16.78Z" />
  <path
     id="path51"
     style="fill:#ff6549;fill-opacity:1"
     transform="translate(-0.36 -6.59)"
     d="M50.68,21.53,56,38.11c-1.11.57-3.69.41-5.09.52a11.78,11.78,0,0,0-1.81.25L44.23,23.63l1.5-.49-2.22-6.87a3,3,0,0,1-1.84-1.18l-5.09,1.64c-.49.16-1.09-.32-1.34-1.08l-.08-.25c-.24-.75,0-1.5.46-1.66L40.7,12.1a3.07,3.07,0,0,1,2.12-2.88l.13,0a2.64,2.64,0,0,1,1.57,0,5.53,5.53,0,0,1,4.31-2.52V17.46A4.15,4.15,0,0,1,46.92,17l1.73,5.18Z" />
  <path
     id="path53"
     style="fill:#ff6549;fill-opacity:1"
     transform="translate(-0.36 -6.59)"
     d="M11,30.56a2.94,2.94,0,0,1,0-.72v-.49a2.16,2.16,0,0,1,2.45-2.14h19.9a2,2,0,0,1,2.3,2.14v.49a2.16,2.16,0,0,1-2.3,2.3h-2.3a7.74,7.74,0,0,0-1.95,4.8,6.25,6.25,0,0,0,3.68,5.88H45a19.13,19.13,0,0,0-1,4.11H.36V42.68C.36,38,6.18,31.54,11,30.56Z" />
  <path
     id="path55"
     style="fill:#475059"
     transform="translate(-0.36 -6.59)"
     d="M53.13,37.31a9.59,9.59,0,1,1-9.59,9.59A9.6,9.6,0,0,1,53.13,37.31Z" />
  <path
     id="path57"
     style="fill:#353d44"
     transform="translate(-0.36 -6.59)"
     d="M53.13,37.31h0V56.49h0a9.59,9.59,0,1,1,0-19.18Z" />
  <path
     id="path59"
     style="fill:#bfc2c4"
     transform="translate(-0.36 -6.59)"
     d="M53.13,42.14a4.77,4.77,0,1,1-4.77,4.76A4.77,4.77,0,0,1,53.13,42.14Z" />
  <path
     id="path61"
     style="fill:#acb3b7"
     transform="translate(-0.36 -6.59)"
     d="M53.13,42.14h0v9.53h0a4.77,4.77,0,1,1,0-9.53Z" />
  <path
     id="path63"
     style="fill:#475059"
     transform="translate(-0.36 -6.59)"
     d="M17.84,37.31A9.59,9.59,0,1,1,8.25,46.9,9.61,9.61,0,0,1,17.84,37.31Z" />
  <path
     id="path65"
     style="fill:#353d44"
     transform="translate(-0.36 -6.59)"
     d="M17.84,37.31h0V56.49h0a9.59,9.59,0,0,1,0-19.18Z" />
  <path
     id="path67"
     style="fill:#bfc2c4"
     transform="translate(-0.36 -6.59)"
     d="M17.84,42.14a4.77,4.77,0,1,1-4.77,4.76A4.77,4.77,0,0,1,17.84,42.14Z" />
  <path
     id="path69"
     style="fill:#acb3b7"
     transform="translate(-0.36 -6.59)"
     d="M17.84,42.14h0v9.53h0a4.77,4.77,0,1,1,0-9.53Z" />
  <rect
     id="rect71"
     style="fill:#bfc2c4"
     height="10.86"
     width="0.83"
     x="48.47" />
  <rect
     id="rect73"
     style="fill:#475059"
     rx="1.71"
     height="5.12"
     width="25.12"
     y="20.52"
     x="10.31" />
  <path
     id="path75"
     style="fill:#353d44"
     transform="translate(-0.36 -6.59)"
     d="M12.37,27.11H23.22v5.12H12.37a1.71,1.71,0,0,1-1.71-1.7V28.82A1.72,1.72,0,0,1,12.37,27.11Z" />
</svg>
